/* XPM */
static char * c_xpm[] = {
"64 64 2 1",
" 	c None",
".	c #F7CD09",
"                                                                ",
"                                                                ",
"                                                                ",
"                                                                ",
"                                                                ",
"                                                                ",
"                                                                ",
"                                                                ",
"                                                                ",
"                                                                ",
"                                                                ",
"                                                                ",
"                                                                ",
"                            ...      ....                       ",
"                            ...      ....                       ",
"                            ...      ....                       ",
"                            ....    ....                        ",
"                              ...   ...                         ",
"                               ... ....                         ",
"                                .......                         ",
"                                .......                         ",
"                                 ....                           ",
"                      ........................                  ",
"                      ........................                  ",
"                    .............................               ",
"                 ...................................            ",
"                 ...................................            ",
"                 ....................................           ",
"                .....................................           ",
"                .....................................           ",
"                .....................................           ",
"                .....................................           ",
"                .....................................           ",
"                .....................................           ",
"                .....................................           ",
"                .....................................           ",
"                .....................................           ",
"                .....................................           ",
"                .....................................           ",
"                .....................................           ",
"                .....................................           ",
"                 ....................................           ",
"                 ...................................            ",
"                 ..................................             ",
"                  .................................             ",
"                    ............................                ",
"                     ..........................                 ",
"                      ........................                  ",
"                       .....................                    ",
"                        ..................                      ",
"                         .................                      ",
"                            ............                        ",
"                             ..........                         ",
"                              ........                          ",
"                                                                ",
"                                                                ",
"                                                                ",
"                                                                ",
"                                                                ",
"                                                                ",
"                                                                ",
"                                                                ",
"                                                                ",
"                                                                "};
