/* XPM */
static char * exit_xpm[] = {
"64 64 4 1",
" 	c None",        /* Transparent */
".	c #8B4513",     /* Dunkles Holzbraun (T端r) */
"+	c #654321",     /* Dunkleres Braun f端r Kontur / Struktur */
"x	c #FFD700",     /* Goldgelb f端r T端rgriff */
"                                                                ",
"                                                                ",
"                                                                ",
"                   ++++++++++++++++++++++++++++++++++           ",
"                  +.................................+           ",
"                  +.................................+           ",
"                  +.................................+           ",
"                  +..............+++++++............+           ",
"                  +..............+.....+............+           ",
"                  +..............+.....+............+           ",
"                  +..............+.....+............+           ",
"                  +..............+.....+............+           ",
"                  +..............+.....+............+           ",
"                  +..............+.....+............+           ",
"                  +..............+.....+............+           ",
"                  +..............+++++++............+           ",
"                  +.................................+           ",
"                  +.................................+           ",
"                  +.................................+           ",
"                  +...................x.............+           ",
"                  +.................................+           ",
"                  +.................................+           ",
"                  +.................................+           ",
"                  +.................................+           ",
"                  +.................................+           ",
"                  +.................................+           ",
"                  +.................................+           ",
"                  +.................................+           ",
"                  +.................................+           ",
"                  +.................................+           ",
"                  +.................................+           ",
"                  +.................................+           ",
"                  +.................................+           ",
"                  +.................................+           ",
"                  +.................................+           ",
"                  +.................................+           ",
"                  +.................................+           ",
"                  +.................................+           ",
"                  +.................................+           ",
"                  +.................................+           ",
"                  +.................................+           ",
"                  +.................................+           ",
"                  +.................................+           ",
"                  +.................................+           ",
"                  +.................................+           ",
"                  +.................................+           ",
"                  +.................................+           ",
"                  +.................................+           ",
"                  +.................................+           ",
"                  +.................................+           ",
"                  +.................................+           ",
"                  +.................................+           ",
"                  +.................................+           ",
"                  +.................................+           ",
"                  +.................................+           ",
"                  +.................................+           ",
"                  +.................................+           ",
"                  +.................................+           ",
"                  +.................................+           ",
"                  +.................................+           ",
"                  +.................................+           ",
"                   ++++++++++++++++++++++++++++++++++           ",
"                                                                ",
"                                                                ",
"                                                                "
};
